<?xml version="1.0" encoding="utf-8"?>
<!-- Generator: Adobe Illustrator 23.1.1, SVG Export Plug-In . SVG Version: 6.00 Build 0)  -->
<svg version="1.1" id="Layer_1" xmlns="http://www.w3.org/2000/svg" xmlns:xlink="http://www.w3.org/1999/xlink" x="0px" y="0px"
	 viewBox="0 0 445.99 238.61" style="enable-background:new 0 0 445.99 238.61;" xml:space="preserve">
<style type="text/css">
	.st0{fill:#FFFFFF;}
</style>
<g>
	<path class="st0" d="M1501.88,810.17c-72.63,0-140.9-28.28-192.26-79.64c-51.35-51.35-79.64-119.63-79.64-192.26
		c0-72.63,28.28-140.9,79.64-192.26c51.35-51.35,119.63-79.64,192.26-79.64c2.92,0,6,0.06,9.68,0.19
		c24.7,45.03,59.78,84.79,101.46,114.98c42.39,30.71,91.94,51.71,143.32,60.76c11.57,30.67,17.44,62.95,17.44,95.96
		c0,72.62-28.28,140.9-79.64,192.26C1642.79,781.89,1574.51,810.17,1501.88,810.17z"/>
	<path d="M1501.88,266.88c2.84,0,5.83,0.06,9.37,0.18c24.73,45,59.81,84.72,101.47,114.9c21.08,15.27,43.86,28.17,67.73,38.34
		c24.19,10.32,49.6,17.87,75.52,22.45c11.48,30.53,17.31,62.67,17.31,95.52c0,36.64-7.18,72.18-21.33,105.64
		c-13.67,32.32-33.24,61.34-58.16,86.27c-24.92,24.92-53.95,44.49-86.27,58.16c-33.46,14.15-69,21.33-105.64,21.33
		c-36.64,0-72.18-7.18-105.64-21.33c-32.32-13.67-61.34-33.24-86.27-58.16c-24.92-24.92-44.49-53.95-58.16-86.27
		c-14.15-33.46-21.33-69-21.33-105.64c0-36.64,7.18-72.18,21.33-105.64c13.67-32.32,33.24-61.34,58.16-86.27
		c24.92-24.92,53.95-44.49,86.27-58.16C1429.7,274.06,1465.25,266.88,1501.88,266.88 M1501.88,265.88
		c-150.44,0-272.39,121.95-272.39,272.39c0,150.44,121.95,272.39,272.39,272.39s272.39-121.95,272.39-272.39
		c0-33.95-6.23-66.43-17.57-96.4c-105.73-18.53-195.03-84.8-244.84-175.79C1508.55,265.96,1505.23,265.88,1501.88,265.88
		L1501.88,265.88z"/>
</g>
<g>
	<path class="st0" d="M1479.22,815.51c-69.24,0-134.33-26.96-183.28-75.92c-48.96-48.96-75.92-114.05-75.92-183.28
		s26.96-134.33,75.92-183.28c48.96-48.96,114.05-75.92,183.28-75.92c2.78,0,5.72,0.06,9.21,0.18c23.55,42.93,57,80.83,96.73,109.62
		c40.41,29.27,87.65,49.3,136.64,57.93c11.03,29.23,16.62,60.01,16.62,91.47c0,69.24-26.96,134.33-75.92,183.28
		C1613.54,788.55,1548.45,815.51,1479.22,815.51z"/>
	<path d="M1479.22,297.61c2.7,0,5.54,0.05,8.91,0.17c23.58,42.9,57.02,80.76,96.74,109.53c20.1,14.56,41.83,26.86,64.58,36.56
		c23.06,9.83,47.28,17.03,71.98,21.41c10.94,29.1,16.49,59.72,16.49,91.03c0,34.92-6.84,68.8-20.33,100.7
		c-13.03,30.81-31.68,58.47-55.44,82.23c-23.76,23.76-51.43,42.41-82.23,55.44c-31.89,13.49-65.77,20.33-100.7,20.33
		c-34.92,0-68.8-6.84-100.7-20.33c-30.81-13.03-58.47-31.68-82.23-55.44c-23.76-23.76-42.41-51.43-55.44-82.23
		c-13.49-31.89-20.33-65.77-20.33-100.7s6.84-68.8,20.33-100.7c13.03-30.81,31.68-58.47,55.44-82.23s51.43-42.41,82.23-55.44
		C1410.41,304.45,1444.29,297.61,1479.22,297.61 M1479.22,296.61c-143.43,0-259.7,116.27-259.7,259.7s116.27,259.7,259.7,259.7
		s259.7-116.27,259.7-259.7c0-32.36-5.94-63.34-16.75-91.91c-100.81-17.66-185.94-80.85-233.43-167.6
		C1485.57,296.69,1482.4,296.61,1479.22,296.61L1479.22,296.61z"/>
</g>
<g>
	<path class="st0" d="M1461.28,837.11c-66.91,0-129.82-26.06-177.13-73.37c-47.31-47.31-73.37-110.22-73.37-177.13
		s26.06-129.82,73.37-177.13c47.31-47.31,110.22-73.37,177.13-73.37c2.69,0,5.52,0.06,8.89,0.17
		c22.77,41.49,55.09,78.12,93.49,105.94c39.06,28.29,84.71,47.65,132.06,55.99c10.66,28.25,16.06,57.98,16.06,88.39
		c0,66.91-26.06,129.82-73.37,177.13C1591.09,811.06,1528.19,837.11,1461.28,837.11z"/>
	<path d="M1461.28,336.61c2.6,0,5.35,0.05,8.59,0.16c22.79,41.46,55.11,78.05,93.5,105.86c19.43,14.07,40.43,25.96,62.42,35.34
		c22.29,9.5,45.69,16.46,69.56,20.69c10.57,28.11,15.93,57.7,15.93,87.95c0,33.75-6.61,66.49-19.65,97.31
		c-12.59,29.77-30.62,56.51-53.58,79.47c-22.96,22.96-49.7,40.99-79.47,53.58c-30.82,13.04-63.56,19.65-97.31,19.65
		s-66.49-6.61-97.31-19.65c-29.77-12.59-56.51-30.62-79.47-53.58c-22.96-22.96-40.99-49.7-53.58-79.47
		c-13.04-30.82-19.65-63.56-19.65-97.31s6.61-66.49,19.65-97.31c12.59-29.77,30.62-56.51,53.58-79.47
		c22.96-22.96,49.7-40.99,79.47-53.58C1394.79,343.22,1427.53,336.61,1461.28,336.61 M1461.28,335.61c-138.62,0-251,112.38-251,251
		s112.38,251,251,251s251-112.38,251-251c0-31.28-5.74-61.22-16.19-88.83c-97.43-17.07-179.71-78.14-225.61-161.98
		C1467.42,335.69,1464.36,335.61,1461.28,335.61L1461.28,335.61z"/>
</g>
<g>
	<path class="st0" d="M1244.78-370.89c-85.48,0-165.83-33.29-226.27-93.73c-60.44-60.44-93.73-140.8-93.73-226.27
		c0-85.48,33.29-165.83,93.73-226.27c60.44-60.44,140.8-93.73,226.27-93.73c85.47,0,165.83,33.29,226.27,93.73
		c60.44,60.44,93.73,140.8,93.73,226.27c0,85.47-33.29,165.83-93.73,226.27C1410.61-404.17,1330.25-370.89,1244.78-370.89z"/>
	<path d="M1244.78-1010.39c43.13,0,84.97,8.45,124.36,25.11c38.05,16.09,72.21,39.13,101.56,68.47
		c29.34,29.34,52.38,63.51,68.47,101.56c16.66,39.39,25.11,81.23,25.11,124.36c0,43.13-8.45,84.97-25.11,124.36
		c-16.09,38.05-39.13,72.21-68.47,101.56c-29.34,29.34-63.51,52.38-101.56,68.47c-39.39,16.66-81.23,25.11-124.36,25.11
		c-43.13,0-84.97-8.45-124.36-25.11c-38.05-16.09-72.21-39.13-101.56-68.47c-29.34-29.34-52.38-63.51-68.47-101.56
		c-16.66-39.39-25.11-81.23-25.11-124.36c0-43.13,8.45-84.97,25.11-124.36c16.09-38.05,39.13-72.21,68.47-101.56
		c29.34-29.34,63.51-52.38,101.56-68.47C1159.8-1001.94,1201.65-1010.39,1244.78-1010.39 M1244.78-1011.39
		c-177.01,0-320.5,143.49-320.5,320.5s143.49,320.5,320.5,320.5s320.5-143.49,320.5-320.5S1421.79-1011.39,1244.78-1011.39
		L1244.78-1011.39z"/>
</g>
<g>
	<polygon points="287.41,47.96 298.08,47.96 298.27,69.39 321.46,68.28 319.98,2.13 298.83,1.58 298.73,37.39 288.44,37.39 
		289.83,4.08 267.75,3.06 265.98,68.28 286.77,68.28 	"/>
	<polygon points="226.46,67.17 246.04,66.15 249.56,22.17 263.39,21.62 263.85,1.95 213.29,2.04 212.73,23.94 226.56,23.19 	"/>
	<path d="M401.06,48.24l5.75-0.19l7.14,19.76l20.87-4.08l-11.04-19.67c2.01-1.27,3.73-2.6,5.15-3.99c1.42-1.39,2.58-2.91,3.48-4.55
		c0.9-1.64,1.55-3.44,1.97-5.4c0.42-1.96,0.63-4.15,0.63-6.56c0-3.87-0.76-7.25-2.3-10.16c-1.53-2.91-3.56-5.33-6.1-7.28
		c-2.54-1.95-5.45-3.41-8.74-4.38c-3.29-0.97-6.7-1.46-10.23-1.46c-2.29,0-4.52,0.05-6.7,0.16c-2.18,0.11-4.33,0.31-6.45,0.6
		s-4.23,0.7-6.33,1.23c-2.1,0.53-4.24,1.19-6.4,1.99c-0.19,3.56-0.31,7.08-0.37,10.58c-0.06,3.5-0.12,7.02-0.19,10.58
		c-0.19,7.05-0.35,14.07-0.49,21.06c-0.14,6.99-0.29,14.01-0.44,21.06h19.95L401.06,48.24z M402.36,16.61
		c0.56-0.15,1.13-0.27,1.72-0.35c0.59-0.08,1.19-0.12,1.81-0.12c1.39,0,2.61,0.22,3.64,0.67s1.9,1.07,2.6,1.86
		c0.7,0.79,1.22,1.72,1.58,2.81c0.36,1.08,0.53,2.27,0.53,3.57c0,1.55-0.35,2.88-1.04,3.99c-0.7,1.11-1.59,2.03-2.69,2.74
		c-1.1,0.71-2.34,1.24-3.71,1.58c-1.38,0.34-2.73,0.51-4.06,0.51h-1.11L402.36,16.61z"/>
	<path d="M327.4,52.65c1.02,2.41,2.3,4.64,3.85,6.68c1.55,2.04,3.35,3.81,5.4,5.31c2.06,1.5,4.35,2.67,6.89,3.5
		c2.54,0.83,5.33,1.25,8.4,1.25c1.48,0,3-0.09,4.54-0.28c1.55-0.19,3.08-0.48,4.59-0.88c1.51-0.4,2.98-0.93,4.38-1.58
		c1.41-0.65,2.71-1.44,3.92-2.37l2.23-21.06c-0.96,0.65-2.1,1.38-3.43,2.18c-1.33,0.8-2.72,1.55-4.17,2.25
		c-1.45,0.7-2.92,1.28-4.38,1.74c-1.47,0.46-2.82,0.7-4.06,0.7c-2.38,0-4.43-0.66-6.15-1.99c-1.72-1.33-2.98-3.11-3.78-5.33
		c5.23-0.74,10.45-1.49,15.68-2.25c5.23-0.76,10.48-1.31,15.77-1.65c0.37-2.69,0.56-5.38,0.56-8.07c0-2.54-0.21-5.03-0.63-7.49
		c-0.42-2.46-1.05-4.79-1.9-7c-0.85-2.21-1.93-4.24-3.25-6.1c-1.32-1.86-2.86-3.46-4.64-4.8c-1.78-1.35-3.8-2.4-6.08-3.15
		c-2.27-0.76-4.79-1.14-7.54-1.14c-3.31,0-6.33,0.48-9.07,1.44c-2.74,0.96-5.19,2.29-7.35,3.99c-2.16,1.7-4.06,3.69-5.68,5.96
		c-1.62,2.27-2.97,4.74-4.04,7.4c-1.07,2.66-1.86,5.43-2.39,8.3c-0.53,2.88-0.79,5.75-0.79,8.63c0,2.75,0.26,5.47,0.79,8.16
		C325.6,47.69,326.38,50.24,327.4,52.65z M346.32,27.46c0.43-1.17,0.99-2.27,1.67-3.27c0.68-1,1.49-1.84,2.44-2.5
		c0.94-0.66,2.03-1,3.27-1c1.02,0,1.87,0.24,2.55,0.72c0.68,0.48,1.23,1.09,1.65,1.83c0.42,0.74,0.72,1.57,0.91,2.48
		s0.28,1.8,0.28,2.67v1.02l-13.73,1.3C345.57,29.72,345.89,28.64,346.32,27.46z"/>
	<polygon points="110.63,36.83 117.96,62.71 126.13,62.71 135.68,33.77 135.5,69.67 156.65,68.75 160.92,0.65 135.96,0.65 
		123.34,33.21 113.88,2.5 90.04,3.43 89.11,67.54 110.54,66.89 	"/>
	<polygon points="166.11,37.76 178.17,47.04 186.62,33.03 195.34,46.29 207.4,36.55 198.58,25.61 209.72,21.25 202.85,7.51 
		192.92,14.94 193.48,0 178.08,0.56 178.36,14.38 168.52,9.46 162.87,22.92 174.56,27.46 	"/>
	<polygon points="21.29,152.17 40.87,151.15 44.39,107.17 58.22,106.62 58.68,86.95 8.12,87.04 7.56,108.94 21.39,108.19 	"/>
	<path d="M411.43,133.13c-0.76,0.23-1.55,0.37-2.39,0.42c-0.84,0.05-1.55,0.07-2.13,0.07c-3.09,0-6.24-0.41-9.44-1.23
		c-3.2-0.82-6.12-2.02-8.74-3.59l-2.04,19.11c1.33,0.62,2.85,1.28,4.57,1.97c1.72,0.7,3.5,1.34,5.36,1.95
		c1.86,0.6,3.69,1.11,5.5,1.51c1.81,0.4,3.47,0.6,4.99,0.6c3.93,0,7.6-0.53,11.02-1.58c3.42-1.05,6.4-2.63,8.95-4.73
		c2.55-2.1,4.56-4.74,6.03-7.91c1.47-3.17,2.2-6.87,2.2-11.11c0-2.47-0.36-4.74-1.09-6.8c-0.73-2.06-1.78-3.83-3.15-5.31
		s-3.05-2.67-5.03-3.57c-1.98-0.9-4.21-1.42-6.68-1.58c-0.49-0.06-1.13-0.08-1.9-0.07c-0.77,0.02-1.61,0.02-2.5,0
		c-0.9-0.02-1.8-0.07-2.71-0.16s-1.75-0.26-2.5-0.49c-0.76-0.23-1.38-0.56-1.86-0.97c-0.48-0.42-0.73-0.97-0.77-1.65
		c-0.03-0.59,0.12-1.1,0.46-1.53c0.34-0.43,0.79-0.78,1.34-1.04s1.19-0.47,1.9-0.63c0.71-0.15,1.42-0.27,2.11-0.35
		c0.7-0.08,1.36-0.12,1.99-0.14s1.15-0.02,1.55-0.02c2.2,0,4.44,0.24,6.75,0.72c2.3,0.48,4.51,1.08,6.61,1.79l1.76-18.83
		c-1.36-0.65-2.8-1.19-4.31-1.62c-1.52-0.43-3.07-0.79-4.66-1.07s-3.19-0.47-4.8-0.58c-1.61-0.11-3.17-0.16-4.68-0.16
		c-3.4,0-6.7,0.54-9.88,1.62c-3.19,1.08-6.01,2.64-8.47,4.66c-2.46,2.03-4.42,4.48-5.89,7.38c-1.47,2.89-2.2,6.16-2.2,9.81
		c0,2.66,0.43,5.13,1.3,7.4c0.87,2.27,2.08,4.24,3.64,5.89s3.43,2.95,5.61,3.87c2.18,0.93,4.6,1.39,7.26,1.39c0.37,0,0.87,0,1.48,0
		c0.62,0,1.28,0.03,2,0.09c0.71,0.06,1.44,0.16,2.18,0.3c0.74,0.14,1.41,0.34,1.99,0.6c0.59,0.26,1.07,0.6,1.44,1.02
		c0.37,0.42,0.56,0.92,0.56,1.51c0,0.87-0.26,1.53-0.79,1.99C412.83,132.55,412.19,132.89,411.43,133.13z"/>
	<path d="M367.45,86.74c-3.29-0.97-6.7-1.46-10.23-1.46c-2.29,0-4.52,0.05-6.7,0.16c-2.18,0.11-4.33,0.31-6.45,0.6
		s-4.23,0.7-6.33,1.23c-2.1,0.53-4.24,1.19-6.4,1.99c-0.19,3.56-0.31,7.08-0.37,10.58c-0.06,3.5-0.12,7.02-0.19,10.58
		c-0.19,7.05-0.35,14.07-0.49,21.06c-0.14,6.99-0.29,14.01-0.44,21.06h19.95l0.83-19.3l5.75-0.19l7.14,19.76l20.87-4.08
		l-11.04-19.67c2.01-1.27,3.73-2.6,5.15-3.99c1.42-1.39,2.58-2.91,3.48-4.55c0.9-1.64,1.55-3.44,1.97-5.4
		c0.42-1.96,0.63-4.15,0.63-6.56c0-3.87-0.76-7.25-2.3-10.16c-1.53-2.91-3.56-5.33-6.1-7.28C373.66,89.17,370.75,87.71,367.45,86.74
		z M362.77,114.04c-0.7,1.11-1.59,2.03-2.69,2.74c-1.1,0.71-2.34,1.24-3.71,1.58c-1.38,0.34-2.73,0.51-4.06,0.51h-1.11l0.74-17.26
		c0.56-0.15,1.13-0.27,1.72-0.35c0.59-0.08,1.19-0.12,1.81-0.12c1.39,0,2.61,0.22,3.64,0.67s1.9,1.07,2.6,1.86
		c0.7,0.79,1.22,1.72,1.58,2.81c0.36,1.08,0.53,2.27,0.53,3.57C363.81,111.6,363.47,112.92,362.77,114.04z"/>
	<path d="M81.64,133.24l5.75-0.19l7.14,19.76l20.87-4.08l-11.04-19.67c2.01-1.27,3.73-2.6,5.15-3.99c1.42-1.39,2.58-2.91,3.48-4.55
		c0.9-1.64,1.55-3.44,1.97-5.4c0.42-1.96,0.63-4.15,0.63-6.56c0-3.87-0.76-7.25-2.3-10.16c-1.53-2.91-3.56-5.33-6.1-7.28
		c-2.54-1.95-5.45-3.41-8.74-4.38c-3.29-0.97-6.7-1.46-10.23-1.46c-2.29,0-4.52,0.05-6.7,0.16c-2.18,0.11-4.33,0.31-6.45,0.6
		s-4.23,0.7-6.33,1.23c-2.1,0.53-4.24,1.19-6.4,1.99c-0.19,3.56-0.31,7.08-0.37,10.58c-0.06,3.5-0.12,7.02-0.19,10.58
		c-0.19,7.05-0.35,14.07-0.49,21.06c-0.14,6.99-0.29,14.01-0.44,21.06h19.95L81.64,133.24z M82.94,101.61
		c0.56-0.15,1.13-0.27,1.72-0.35c0.59-0.08,1.19-0.12,1.81-0.12c1.39,0,2.61,0.22,3.64,0.67s1.9,1.07,2.6,1.86
		c0.7,0.79,1.22,1.72,1.58,2.81c0.36,1.08,0.53,2.27,0.53,3.57c0,1.55-0.35,2.88-1.04,3.99c-0.7,1.11-1.59,2.03-2.69,2.74
		c-1.1,0.71-2.34,1.24-3.71,1.58c-1.38,0.34-2.73,0.51-4.06,0.51H82.2L82.94,101.61z"/>
	<path d="M142.18,91.03l-21.71-0.83c-0.8,4.3-1.42,8.6-1.86,12.92c-0.43,4.31-0.65,8.64-0.65,12.96c0,2.81,0.13,5.74,0.39,8.79
		c0.26,3.05,0.73,6.03,1.42,8.95c0.68,2.92,1.62,5.69,2.83,8.3c1.21,2.61,2.75,4.9,4.64,6.87c1.89,1.96,4.15,3.53,6.79,4.69
		c2.64,1.16,5.76,1.74,9.35,1.74c3.06,0,5.84-0.52,8.35-1.55c2.5-1.04,4.77-2.46,6.79-4.27c2.03-1.81,3.82-3.93,5.38-6.36
		c1.56-2.43,2.93-5.03,4.11-7.82c1.17-2.78,2.16-5.68,2.95-8.7c0.79-3.01,1.43-5.99,1.93-8.93c0.49-2.94,0.85-5.78,1.07-8.54
		c0.22-2.75,0.32-5.27,0.32-7.56c0-4.39-0.19-8.72-0.56-12.99h-21.71c0.16,2.38,0.27,4.77,0.35,7.17c0.08,2.4,0.12,4.8,0.12,7.21
		c0,0.65-0.02,1.64-0.05,2.97c-0.03,1.33-0.1,2.86-0.21,4.59c-0.11,1.73-0.25,3.6-0.42,5.61c-0.17,2.01-0.39,4.02-0.67,6.03
		c-0.28,2.01-0.62,3.94-1.02,5.8c-0.4,1.86-0.87,3.5-1.42,4.92c-0.54,1.42-1.17,2.56-1.88,3.41c-0.71,0.85-1.51,1.28-2.41,1.28
		c-0.77,0-1.45-0.35-2.02-1.07c-0.57-0.71-1.06-1.62-1.46-2.74c-0.4-1.11-0.72-2.34-0.95-3.69c-0.23-1.35-0.41-2.66-0.53-3.94
		c-0.12-1.28-0.21-2.44-0.25-3.48c-0.05-1.04-0.07-1.82-0.07-2.34c0-4.95,0.3-9.87,0.9-14.77
		C140.62,100.76,141.34,95.89,142.18,91.03z"/>
	<path d="M184.71,97.06c-2.94,3.53-5.16,7.63-6.68,12.32c-1.51,4.69-2.27,9.67-2.27,14.96c0,3.99,0.72,7.71,2.16,11.16
		c1.44,3.45,3.41,6.44,5.91,8.98c2.5,2.54,5.46,4.53,8.86,5.98c3.4,1.45,7.07,2.18,10.99,2.18c1.36,0,2.78-0.09,4.27-0.28
		s2.97-0.46,4.45-0.81s2.93-0.77,4.34-1.25c1.41-0.48,2.71-1.03,3.92-1.65l1.86-21.8c-0.96,0.56-2.01,1.1-3.15,1.62
		c-1.14,0.53-2.32,0.99-3.53,1.39c-1.21,0.4-2.43,0.73-3.67,0.97c-1.24,0.25-2.43,0.37-3.57,0.37c-1.52,0-2.91-0.19-4.17-0.56
		c-1.27-0.37-2.37-0.94-3.29-1.72c-0.93-0.77-1.65-1.75-2.16-2.92c-0.51-1.17-0.77-2.57-0.77-4.17c0-2.5,0.47-4.69,1.42-6.54
		c0.94-1.86,2.21-3.4,3.8-4.64c1.59-1.24,3.42-2.16,5.5-2.76c2.07-0.6,4.25-0.9,6.54-0.9c0.9,0,1.79,0.05,2.69,0.14
		c0.9,0.09,1.79,0.26,2.69,0.51l2.6-19.58c-1.92-0.93-4-1.56-6.24-1.9c-2.24-0.34-4.43-0.51-6.56-0.51
		c-5.66,0-10.66,1.02-15.01,3.06C191.29,90.75,187.65,93.54,184.71,97.06z"/>
	<path d="M327.54,103.65c0.25-2.91,0.45-5.78,0.6-8.63c0.16-2.84,0.33-5.72,0.51-8.63h-42.77l-1.48,66.89l39.99-0.93
		c0.15-3.37,0.33-6.73,0.53-10.09s0.39-6.73,0.58-10.14h-8.16h-11.5l0.46-6.77l13.92-0.46l1.02-14.38h-13.82l0.46-5.84
		L327.54,103.65z"/>
	<polygon points="261.81,85 247.43,107.17 249.1,86.21 227.48,85 226,156.06 245.29,155.32 246.04,134.36 260.14,154.39 
		281.66,150.59 262.83,117.75 285.19,86.86 	"/>
	<path d="M445.99,168.11L0,173.12l0.65,31.99l63.79-2.02c1.77,19.9,18.47,35.51,38.84,35.51c21.19,0,38.43-16.91,38.97-37.97
		l186.81-5.91c3.35,18.14,19.23,31.88,38.34,31.88c19.95,0,36.39-14.99,38.71-34.32l33.2-1.05L445.99,168.11z"/>
</g>
<polygon style="fill:none;" points="396.26,-160.85 -407.37,-167.85 -407.37,-466.3 396.26,-466.3 "/>
<text transform="matrix(1 0 0 1 9.1659 -401.1778)"><tspan x="0" y="0" style="font-family:'LuckiestGuy-Regular'; font-size:95px;">  M*THer</tspan><tspan x="-60.54" y="85" style="font-family:'LuckiestGuy-Regular'; font-size:95px;"> TRUCKERS</tspan></text>
<polygon points="-38.94,-264.34 -39.59,-296.34 406.4,-301.35 399.72,-278.21 "/>
<path d="M102.69-269.85c0,21.54-17.46,39-39,39s-39-17.46-39-39C24.69-269.85,102.69-269.85,102.69-269.85z"/>
<path d="M366.81-281.85c0,21.54-17.46,39-39,39s-39-17.46-39-39C288.81-281.85,366.81-281.85,366.81-281.85z"/>
</svg>
