<?xml version="1.0" encoding="utf-8"?>
<!-- Generator: Adobe Illustrator 23.1.1, SVG Export Plug-In . SVG Version: 6.00 Build 0)  -->
<svg version="1.1" id="Layer_1" xmlns="http://www.w3.org/2000/svg" xmlns:xlink="http://www.w3.org/1999/xlink" x="0px" y="0px"
	 viewBox="0 0 376.84 343.23" style="enable-background:new 0 0 376.84 343.23;" xml:space="preserve">
<style type="text/css">
	.st0{fill:#FFFFFF;}
	.st1{fill:#333333;}
	.st2{opacity:0.8;}
	
</style>
<g>
	<path class="st0" d="M95.62,203.46l-62.52,0.91L3.23,143.2l54.73,1.11l1.95-134.8l78.26-3.05l7.62,24.72l10.8-27.88h69.93
		l0.17-1.05l7.73,1.05h3.26l-0.03,0.44l109.7,14.94l-3.8,18.81c-1.11,5.48-2.21,11.1-3.29,16.69c-1.1,5.71-2.31,11.55-3.61,17.36
		l-3.43,15.32l-11.37-0.95l-4.28,20.45l11.11,1.51l-3.59,18.67c-1.28,6.68-2.58,13.31-3.88,19.9l-0.63,3.17l53.48,1.08l-16.28,48.95
		l-69.71,1.02l-87.11,139.08L95.62,203.46z"/>
	<path d="M228.36,4.49l5.66,0.77l0.27,0.04h0.27h0.99l-0.01,0.17l3.69,0.5l105.75,14.4l-3.38,16.72c-1.11,5.48-2.21,11.1-3.29,16.71
		c-1.09,5.69-2.3,11.52-3.6,17.3l-3.05,13.61l-7.87-0.66l-3.52-0.29l-0.72,3.46l-3.48,16.62l-0.88,4.2l4.25,0.58l6.89,0.94
		l-3.19,16.59c-1.3,6.79-2.61,13.48-3.88,19.89l-0.09,0.44l-0.08,0.39l-0.92,4.68l4.77,0.1l48.38,0.98l-14.97,45.02l-67.2,0.98
		l-2.18,0.03l-1.16,1.84l-85.01,135.72l-103-133.21l-1.22-1.58l-2,0.03l-60.25,0.88L6.47,145.27l49.44,1l4.02,0.08l0.06-4.02
		l1.89-130.89l74.83-2.91l5.47,17.75l3.39,11l4.16-10.74l8.23-21.24h66.85h3.41L228.36,4.49 M225.02,0l-0.21,1.3h-69.59L146,25.09
		L139.63,4.4L57.94,7.58l-1.95,134.68L0,141.14l31.86,65.26l62.79-0.92l106.51,137.75l88.06-140.58l70.04-1.02l17.58-52.87
		l-53.8-1.09c0.05-0.28,0.11-0.56,0.16-0.83c1.3-6.59,2.6-13.22,3.88-19.91l3.99-20.74l-11.08-1.51l3.48-16.62l11.34,0.95
		l3.81-17.02c1.31-5.86,2.53-11.72,3.62-17.42c1.07-5.57,2.17-11.18,3.28-16.67l4.22-20.9L239.76,2.01l0.04-0.71h-5.25L225.02,0z"/>
	<polygon points="118.59,93.2 133.15,144.64 149.38,144.64 168.37,87.12 168,158.47 210.04,156.62 218.52,21.3 168.92,21.3 
		143.85,86.01 125.04,24.99 77.66,26.83 75.82,154.23 118.4,152.93 	"/>
	<path d="M319.1,67.61c1.27-5.66,2.43-11.27,3.5-16.83c1.07-5.56,2.17-11.18,3.32-16.85L241.7,22.46l-20.86,131.31l78.98,8.9
		c1.21-6.59,2.46-13.17,3.76-19.72c1.3-6.55,2.58-13.15,3.86-19.8l-16.08-2.19l-22.65-3.09l2.73-13.21l27.53,2.82l5.87-28.04
		l-27.22-3.71l2.48-11.38L319.1,67.61z"/>
	<polygon points="344.76,181.83 349.3,168.19 32.34,161.79 44.26,186.21 	"/>
	<polygon class="st2" points="267.06,200.33 199.44,308.3 110.45,193.22 257.57,189.66 	"/>
</g>
</svg>
