<?xml version="1.0" encoding="utf-8"?>
<!-- Generator: Adobe Illustrator 23.1.1, SVG Export Plug-In . SVG Version: 6.00 Build 0)  -->
<svg version="1.1" id="Layer_1" xmlns="http://www.w3.org/2000/svg" xmlns:xlink="http://www.w3.org/1999/xlink" x="0px" y="0px"
	 viewBox="0 0 314.68 287.48" style="enable-background:new 0 0 314.68 287.48;" xml:space="preserve">
<style type="text/css">
	.st0{opacity:0.8;}
</style>
<g>
	<path d="M314.68,134.48L4.72,137.96l0.45,22.24l44.34-1.4c1.23,13.83,12.84,24.68,26.99,24.68c14.73,0,26.71-11.75,27.09-26.39
		l129.83-4.1c2.33,12.6,13.37,22.16,26.65,22.16c13.87,0,25.29-10.42,26.9-23.85l23.07-0.73L314.68,134.48z"/>
</g>
<g>
	<polygon points="110.52,72.42 126.49,117.65 141.01,116.72 154.74,64.14 158.47,128.04 196,124 195.89,2.36 151.49,5.19 
		132.72,64.55 112.41,10.98 70.1,15.33 75.7,129.49 113.75,125.92 	"/>
</g>
<g>
	<polygon points="220.82,124.29 257.43,127.35 275.12,46.57 300.93,49.04 306.77,12.63 212.85,0 206.27,40.52 232.13,42.64 	"/>
</g>
<g class="st0">
	<polygon points="63,129.48 7,129.48 0,87.48 63,76.48 	"/>
</g>
<g class="st0">
	<polygon points="307,129.48 271,129.48 280.96,69.97 307,63.48 	"/>
</g>
<g class="st0">
	<polygon points="227.63,159.79 231.24,175.48 169,287.48 98.05,199.79 112,165.42 	"/>
</g>
</svg>
