<?xml version="1.0" encoding="utf-8"?>
<!-- Generator: Adobe Illustrator 23.1.1, SVG Export Plug-In . SVG Version: 6.00 Build 0)  -->
<svg version="1.1" id="Layer_1" xmlns="http://www.w3.org/2000/svg" xmlns:xlink="http://www.w3.org/1999/xlink" x="0px" y="0px"
	 viewBox="0 0 376.84 343.23" style="enable-background:new 0 0 376.84 343.23;" xml:space="preserve">
<style type="text/css">
	.st0{fill:#FFFFFF;}
	.st1{fill:#333333;}
	.st2{opacity:0.8;}
</style>
<g>
	<path class="st0" d="M-289.42,315.03l-73.73-91.12l14.5-35.71l120.16-5.85l3.75,16.3L-289.42,315.03 M-138.04,156.05
		L-138.04,156.05l-4.82,16.71l-23.98,0.76c-1.67,13.96-13.55,24.78-27.96,24.78c-13.8,0-25.27-9.92-27.69-23.02l-134.91,4.27
		c-0.39,15.21-12.84,27.42-28.15,27.42c-14.71,0-26.77-11.27-28.05-25.65l-46.07,1.46l-0.47-23.11L-138.04,156.05 M-457.76,150.85
		l-7.27-43.64l65.47-11.43v55.07H-457.76 M-183.42,150.85l10.35-61.84l27.06-6.75v68.58H-183.42 M-258.76-2.82l-0.18,1.11
		l-0.51,3.15l-3.18,0.2l-60.72,3.86l-10.85,3.41l-0.39,0.12l-0.4,0.04l-75.69,7.78l2.91,59.28l0.17,3.53l-3.48,0.61l-74.19,12.95
		l7.49,44.92l0.77,4.61l-1.18,0.01l1.15,57.01l47.59-1.5l2.44-0.08l1.18,2.14c7.67,13.84,22.3,22.69,38.19,23.09l1.85,0.05
		l1.16,1.44l96.85,119.7l72.52-130.49l1.63-2.94l3.18,1.1c4.74,1.65,9.69,2.48,14.71,2.48c16.31,0,31.38-8.88,39.33-23.18l1.1-1.98
		l2.27-0.07l21.97-0.7l14.47-50.13l-9.54,0.11l-4.04,0.04v-4.04V55.36v-0.13l0.01-0.13l2.63-40.27L-258.76-2.82"/>
	<path d="M-477.05,199.77l-1.15-57.01l1.18-0.01l-0.77-4.61l-7.49-44.92l74.19-12.95l3.48-0.61l-0.17-3.53l-2.91-59.28L-335,9.08
		l0.4-0.04l0.39-0.12l10.85-3.41l60.72-3.86l3.18-0.2l0.51-3.15l0.18-1.11l131.21,17.64l-2.63,40.27l-0.01,0.13v0.13v79.45v4.04
		l4.04-0.04l9.54-0.11l-14.47,50.13l-21.97,0.7l-2.27,0.07l-1.1,1.98c-7.94,14.3-23.01,23.18-39.33,23.18
		c-5.02,0-9.97-0.83-14.71-2.48l-3.18-1.1l-1.63,2.94l-72.52,130.49l-96.85-119.7l-1.16-1.44l-1.85-0.05
		c-15.89-0.4-30.53-9.25-38.19-23.09l-1.18-2.14l-2.44,0.08L-477.05,199.77 M-262.08-7.3l-0.8,4.95l-61.21,3.89l-11.31,3.56
		l-79.46,8.17l3.09,63.07l-78.1,13.64l8.14,48.83l-0.54,0.01l1.32,65.09l51.63-1.63c8.29,14.96,24.1,24.71,41.59,25.15
		l100.58,124.31l75.4-135.67c5.13,1.78,10.54,2.7,16.02,2.7c17.88,0,34.3-9.9,42.83-25.24l24.88-0.79l16.77-58.1l-14.92,0.17V55.36
		l2.88-44L-262.08-7.3"/>
	<path d="M-138.04,156.05l-322.09,3.62l0.47,23.11l46.07-1.46c1.27,14.37,13.34,25.65,28.05,25.65c15.31,0,27.75-12.21,28.15-27.42
		l134.91-4.27c2.42,13.1,13.89,23.02,27.69,23.02c14.41,0,26.28-10.82,27.96-24.78l23.98-0.76L-138.04,156.05"/>
	<polygon points="-350.19,91.56 -333.59,138.56 -318.5,137.6 -304.23,82.96 -300.36,149.36 -261.36,145.16 -261.47,18.76 
		-307.61,21.69 -327.11,83.38 -348.22,27.72 -392.19,32.24 -386.37,150.87 -346.83,147.15 	"/>
	<polygon points="-235.57,145.45 -197.52,148.63 -179.15,64.7 -152.32,67.26 -146.25,29.43 -243.85,16.3 -250.69,58.41 
		-223.82,60.61 	"/>
	<polyline class="st1" points="-399.56,95.78 -465.03,107.21 -457.76,150.85 -399.56,150.85 -399.56,95.78 	"/>
	<polyline class="st1" points="-146.01,82.27 -173.08,89.01 -183.42,150.85 -146.01,150.85 -146.01,82.27 	"/>
	<polyline class="st1" points="-228.49,182.35 -348.65,188.2 -363.14,223.91 -289.42,315.03 -224.74,198.65 -228.49,182.35 	"/>
</g>
<g>
	<path class="st0" d="M95.62,203.46l-62.52,0.91L3.23,143.2l54.73,1.11l1.95-134.8l78.26-3.05l7.62,24.72l10.8-27.88h69.93
		l0.17-1.05l7.73,1.05h3.26l-0.03,0.44l109.7,14.94l-3.8,18.81c-1.11,5.48-2.21,11.1-3.29,16.69c-1.1,5.71-2.31,11.55-3.61,17.36
		l-3.43,15.32l-11.37-0.95l-4.28,20.45l11.11,1.51l-3.59,18.67c-1.28,6.68-2.58,13.31-3.88,19.9l-0.63,3.17l53.48,1.08l-16.28,48.95
		l-69.71,1.02l-87.11,139.08L95.62,203.46z"/>
	<path d="M228.36,4.49l5.66,0.77l0.27,0.04h0.27h0.99l-0.01,0.17l3.69,0.5l105.75,14.4l-3.38,16.72c-1.11,5.48-2.21,11.1-3.29,16.71
		c-1.09,5.69-2.3,11.52-3.6,17.3l-3.05,13.61l-7.87-0.66l-3.52-0.29l-0.72,3.46l-3.48,16.62l-0.88,4.2l4.25,0.58l6.89,0.94
		l-3.19,16.59c-1.3,6.79-2.61,13.48-3.88,19.89l-0.09,0.44l-0.08,0.39l-0.92,4.68l4.77,0.1l48.38,0.98l-14.97,45.02l-67.2,0.98
		l-2.18,0.03l-1.16,1.84l-85.01,135.72l-103-133.21l-1.22-1.58l-2,0.03l-60.25,0.88L6.47,145.27l49.44,1l4.02,0.08l0.06-4.02
		l1.89-130.89l74.83-2.91l5.47,17.75l3.39,11l4.16-10.74l8.23-21.24h66.85h3.41L228.36,4.49 M225.02,0l-0.21,1.3h-69.59L146,25.09
		L139.63,4.4L57.94,7.58l-1.95,134.68L0,141.14l31.86,65.26l62.79-0.92l106.51,137.75l88.06-140.58l70.04-1.02l17.58-52.87
		l-53.8-1.09c0.05-0.28,0.11-0.56,0.16-0.83c1.3-6.59,2.6-13.22,3.88-19.91l3.99-20.74l-11.08-1.51l3.48-16.62l11.34,0.95
		l3.81-17.02c1.31-5.86,2.53-11.72,3.62-17.42c1.07-5.57,2.17-11.18,3.28-16.67l4.22-20.9L239.76,2.01l0.04-0.71h-5.25L225.02,0z"/>
	<polygon points="118.59,93.2 133.15,144.64 149.38,144.64 168.37,87.12 168,158.47 210.04,156.62 218.52,21.3 168.92,21.3 
		143.85,86.01 125.04,24.99 77.66,26.83 75.82,154.23 118.4,152.93 	"/>
	<path d="M319.1,67.61c1.27-5.66,2.43-11.27,3.5-16.83c1.07-5.56,2.17-11.18,3.32-16.85L241.7,22.46l-20.86,131.31l78.98,8.9
		c1.21-6.59,2.46-13.17,3.76-19.72c1.3-6.55,2.58-13.15,3.86-19.8l-16.08-2.19l-22.65-3.09l2.73-13.21l27.53,2.82l5.87-28.04
		l-27.22-3.71l2.48-11.38L319.1,67.61z"/>
	<polygon points="344.76,181.83 349.3,168.19 32.34,161.79 44.26,186.21 	"/>
	<polygon class="st2" points="267.06,200.33 199.44,308.3 110.45,193.22 257.57,189.66 	"/>
</g>
</svg>
