<?xml version="1.0" encoding="utf-8"?>
<!-- Generator: Adobe Illustrator 23.1.1, SVG Export Plug-In . SVG Version: 6.00 Build 0)  -->
<svg version="1.1" id="Layer_1" xmlns="http://www.w3.org/2000/svg" xmlns:xlink="http://www.w3.org/1999/xlink" x="0px" y="0px"
	 viewBox="0 0 378.6 359.03" style="enable-background:new 0 0 378.6 359.03;" xml:space="preserve">
<style type="text/css">
	.st0{fill:#FFFFFF;}
	.st1{fill:#333333;}
	.st2{opacity:0.8;}
</style>
<g>
	<path class="st0" d="M200.46,322.33l-73.73-91.12l14.5-35.71l120.16-5.85l3.75,16.3L200.46,322.33 M351.84,163.35L351.84,163.35
		l-4.82,16.71l-23.98,0.76c-1.67,13.96-13.55,24.78-27.96,24.78c-13.8,0-25.27-9.92-27.69-23.02l-134.91,4.27
		c-0.39,15.21-12.84,27.42-28.15,27.42c-14.71,0-26.77-11.27-28.05-25.65l-46.07,1.46l-0.47-23.11L351.84,163.35 M32.12,158.15
		l-7.27-43.64l65.47-11.43v55.07H32.12 M306.45,158.15l10.35-61.84l27.06-6.75v68.58H306.45 M231.12,4.48l-0.18,1.11l-0.51,3.15
		l-3.18,0.2l-60.72,3.86l-10.85,3.41l-0.39,0.12l-0.4,0.04l-75.69,7.78l2.91,59.28l0.17,3.53l-3.48,0.61L4.6,100.53l7.49,44.92
		l0.77,4.61l-1.18,0.01l1.15,57.01l47.59-1.5l2.44-0.08l1.18,2.14c7.67,13.84,22.3,22.69,38.19,23.09l1.85,0.05l1.16,1.44
		l96.85,119.7l72.52-130.49l1.63-2.94l3.18,1.1c4.74,1.65,9.69,2.48,14.71,2.48c16.31,0,31.38-8.88,39.33-23.18l1.1-1.98l2.27-0.07
		l21.97-0.7L373.27,146l-9.54,0.11l-4.04,0.04v-4.04V62.66v-0.13l0.01-0.13l2.63-40.27L231.12,4.48"/>
	<path d="M12.83,207.07l-1.15-57.01l1.18-0.01l-0.77-4.61L4.6,100.53l74.19-12.95l3.48-0.61l-0.17-3.53l-2.91-59.28l75.69-7.78
		l0.4-0.04l0.39-0.12l10.85-3.41l60.72-3.86l3.18-0.2l0.51-3.15l0.18-1.11l131.21,17.64l-2.63,40.27l-0.01,0.13v0.13v79.45v4.04
		l4.04-0.04l9.54-0.11l-14.47,50.13l-21.97,0.7l-2.27,0.07l-1.1,1.98c-7.94,14.3-23.01,23.18-39.33,23.18
		c-5.02,0-9.97-0.83-14.71-2.48l-3.18-1.1l-1.63,2.94l-72.52,130.49l-96.85-119.7l-1.16-1.44l-1.85-0.05
		c-15.89-0.4-30.53-9.25-38.19-23.09l-1.18-2.14l-2.44,0.08L12.83,207.07 M227.79,0l-0.8,4.95l-61.21,3.89l-11.31,3.56l-79.46,8.17
		l3.09,63.07L0,97.27l8.14,48.83l-0.54,0.01l1.32,65.09l51.63-1.63c8.29,14.96,24.1,24.71,41.59,25.15l100.58,124.31l75.4-135.67
		c5.13,1.78,10.54,2.7,16.02,2.7c17.88,0,34.3-9.9,42.83-25.24l24.88-0.79l16.77-58.1l-14.92,0.17V62.66l2.88-44L227.79,0"/>
	<path d="M351.84,163.35l-322.09,3.62l0.47,23.11l46.07-1.46c1.27,14.37,13.34,25.65,28.05,25.65c15.31,0,27.75-12.21,28.15-27.42
		l134.91-4.27c2.42,13.1,13.89,23.02,27.69,23.02c14.41,0,26.28-10.82,27.96-24.78l23.98-0.76L351.84,163.35"/>
	<polygon points="139.69,98.86 156.28,145.86 171.38,144.9 185.64,90.26 189.52,156.66 228.52,152.46 228.4,26.06 182.26,28.99 
		162.76,90.68 141.66,35.02 97.69,39.54 103.51,158.17 143.05,154.45 	"/>
	<polygon points="254.31,152.75 292.36,155.93 310.73,72 337.55,74.56 343.62,36.73 246.02,23.6 239.19,65.71 266.06,67.91 	"/>
	<polyline class="st1" points="90.31,103.08 24.85,114.51 32.12,158.15 90.31,158.15 90.31,103.08 	"/>
	<polyline class="st1" points="343.86,89.57 316.8,96.31 306.45,158.15 343.86,158.15 343.86,89.57 	"/>
	<polyline class="st1" points="261.39,189.65 141.23,195.5 126.73,231.21 200.46,322.33 265.14,205.95 261.39,189.65 	"/>
</g>
</svg>
