<?xml version="1.0" encoding="utf-8"?>
<!-- Generator: Adobe Illustrator 23.0.6, SVG Export Plug-In . SVG Version: 6.00 Build 0)  -->
<svg version="1.1" id="Layer_1" xmlns="http://www.w3.org/2000/svg" xmlns:xlink="http://www.w3.org/1999/xlink" x="0px" y="0px"
	 viewBox="0 0 49.9 47.4" style="enable-background:new 0 0 49.9 47.4;" xml:space="preserve">
<style type="text/css">
	.st0{fill:#FFFFFF;}
	.st1{fill:#333333;}
</style>
<g>
	<path class="st0" d="M26.5,42.5l-9.7-12l1.9-4.7L34.5,25l0.5,2.2L26.5,42.5 M46.5,21.5L46.5,21.5l-0.6,2.2l-3.2,0.1
		c-0.2,1.8-1.8,3.3-3.7,3.3c-1.8,0-3.3-1.3-3.7-3l-17.8,0.6c-0.1,2-1.7,3.6-3.7,3.6c-1.9,0-3.5-1.5-3.7-3.4L4,25L3.9,22L46.5,21.5
		 M4.2,20.8l-1-5.8l8.6-1.5v7.3H4.2 M40.5,20.8l1.4-8.2l3.6-0.9v9.1L40.5,20.8 M30.5,0.5l0,0.1l-0.1,0.4l-0.4,0l-8,0.5l-1.4,0.5
		l-0.1,0l-0.1,0l-10,1l0.4,7.8l0,0.5l-0.5,0.1l-9.8,1.7l1,5.9l0.1,0.6l-0.2,0l0.2,7.5L8,27.1l0.3,0l0.2,0.3c1,1.8,2.9,3,5,3l0.2,0
		l0.2,0.2l12.8,15.8l9.6-17.2l0.2-0.4l0.4,0.1c0.6,0.2,1.3,0.3,1.9,0.3c2.2,0,4.1-1.2,5.2-3.1l0.1-0.3l0.3,0l2.9-0.1l1.9-6.6l-1.3,0
		l-0.5,0v-0.5V8.2v0l0,0l0.3-5.3L30.5,0.5"/>
	<path d="M1.7,27.3l-0.2-7.5l0.2,0l-0.1-0.6l-1-5.9l9.8-1.7l0.5-0.1l0-0.5l-0.4-7.8l10-1l0.1,0l0.1,0L22,1.6l8-0.5l0.4,0l0.1-0.4
		l0-0.1l17.3,2.3l-0.3,5.3l0,0v0v10.5v0.5l0.5,0l1.3,0l-1.9,6.6l-2.9,0.1l-0.3,0L44,26.2c-1,1.9-3,3.1-5.2,3.1
		c-0.7,0-1.3-0.1-1.9-0.3l-0.4-0.1l-0.2,0.4l-9.6,17.2L13.9,30.6l-0.2-0.2l-0.2,0c-2.1-0.1-4-1.2-5-3l-0.2-0.3l-0.3,0L1.7,27.3
		 M30.1-0.1L30,0.6l-8.1,0.5l-1.5,0.5L9.9,2.7l0.4,8.3L0,12.8l1.1,6.4l-0.1,0l0.2,8.6L8,27.6c1.1,2,3.2,3.3,5.5,3.3l13.3,16.4
		l10-17.9c0.7,0.2,1.4,0.4,2.1,0.4c2.4,0,4.5-1.3,5.7-3.3l3.3-0.1l2.2-7.7l-2,0V8.2l0.4-5.8L30.1-0.1"/>
	<path d="M46.5,21.5L3.9,22L4,25l6.1-0.2c0.2,1.9,1.8,3.4,3.7,3.4c2,0,3.7-1.6,3.7-3.6l17.8-0.6c0.3,1.7,1.8,3,3.7,3
		c1.9,0,3.5-1.4,3.7-3.3l3.2-0.1L46.5,21.5"/>
	<polygon points="18.4,13 20.6,19.2 22.6,19.1 24.5,11.9 25,20.6 30.2,20.1 30.2,3.4 24.1,3.8 21.5,11.9 18.7,4.6 12.9,5.2 
		13.7,20.8 18.9,20.3 	"/>
	<polygon points="33.6,20.1 38.6,20.5 41,9.5 44.6,9.8 45.4,4.8 32.5,3.1 31.6,8.6 35.1,8.9 	"/>
	<polyline class="st1" points="11.9,13.6 3.3,15.1 4.2,20.8 11.9,20.8 11.9,13.6 	"/>
	<polyline class="st1" points="45.4,11.8 41.8,12.7 40.5,20.8 45.4,20.8 45.4,11.8 	"/>
	<polyline class="st1" points="34.5,25 18.7,25.8 16.7,30.5 26.5,42.5 35,27.1 34.5,25 	"/>
</g>
</svg>
